<mxfile host="Electron" agent="Mozilla/5.0 (Windows NT 10.0; Win64; x64) AppleWebKit/537.36 (KHTML, like Gecko) draw.io/25.0.1 Chrome/128.0.6613.186 Electron/32.2.6 Safari/537.36" version="25.0.1">
  <diagram name="第 1 页" id="ewl9boTtj5eG1xmZE2dz">
    <mxGraphModel dx="420" dy="268" grid="1" gridSize="3.937" guides="1" tooltips="1" connect="1" arrows="1" fold="1" page="1" pageScale="1" pageWidth="48" pageHeight="48" background="#EBEBEB" math="0" shadow="0">
      <root>
        <mxCell id="0" />
        <mxCell id="1" parent="0" />
        <mxCell id="tneqvr_D7_-3OC6fO03h-1" value="" style="endArrow=none;html=1;rounded=0;strokeColor=#404040;strokeWidth=2;" parent="1" edge="1">
          <mxGeometry width="50" height="50" relative="1" as="geometry">
            <mxPoint x="24" y="43" as="sourcePoint" />
            <mxPoint x="24" y="4" as="targetPoint" />
          </mxGeometry>
        </mxCell>
        <mxCell id="tneqvr_D7_-3OC6fO03h-3" value="" style="verticalLabelPosition=bottom;verticalAlign=top;html=1;shape=mxgraph.basic.orthogonal_triangle;flipH=1;fillColor=none;strokeColor=#404040;strokeWidth=2;" parent="1" vertex="1">
          <mxGeometry x="3.94" y="11.81" width="16.13" height="27.56" as="geometry" />
        </mxCell>
        <mxCell id="tneqvr_D7_-3OC6fO03h-4" value="" style="verticalLabelPosition=bottom;verticalAlign=top;html=1;shape=mxgraph.basic.orthogonal_triangle;flipH=0;fillColor=#404040;strokeColor=#404040;strokeWidth=2;" parent="1" vertex="1">
          <mxGeometry x="27.557" y="11.807" width="16.13" height="27.56" as="geometry" />
        </mxCell>
      </root>
    </mxGraphModel>
  </diagram>
</mxfile>
